<?xml version="1.0" encoding="UTF-8"?>
<svg xmlns="http://www.w3.org/2000/svg" viewBox="0 0 720 260" width="720" height="260" style="max-width:100%;height:auto" role="img" aria-labelledby="title description" preserveAspectRatio="xMidYMid meet">
<title id="title">Строки кода за 365 дней</title>
<desc id="description">Добавлено 3954101, удалено 668643 строк исходного кода.</desc>
<style>text { font-family: -apple-system, BlinkMacSystemFont, "Segoe UI", sans-serif; fill: #1f2328; }
.surface { fill: #ffffff; stroke: #d0d7de; }
.title { font-size: 21px; font-weight: 650; }
.metric { font-size: 14px; font-weight: 600; }
.label { font-size: 12px; }
.muted { fill: #656d76; }
.grid { stroke: #d8dee4; stroke-width: 1; }
.track { fill: #eaeef2; }
.commit-bar { fill: #2f81f7; }
.added-line { fill: none; stroke: #1a7f37; }
.deleted-line { fill: none; stroke: #cf222e; }
.added-marker { fill: #1a7f37; stroke: #1a7f37; }
.deleted-marker { fill: #cf222e; stroke: #cf222e; }
.added-text { fill: #1a7f37; }
.deleted-text { fill: #cf222e; }
.language { fill: #8250df; }
.technology { fill: #0969da; }
@media (prefers-color-scheme: dark) {
  text { fill: #f0f6fc; }
  .surface { fill: #0d1117; stroke: #30363d; }
  .muted { fill: #8b949e; }
  .grid { stroke: #30363d; }
  .track { fill: #21262d; }
  .commit-bar { fill: #58a6ff; }
  .added-line { stroke: #3fb950; }
  .deleted-line { stroke: #f85149; }
  .added-marker { fill: #3fb950; stroke: #3fb950; }
  .deleted-marker { fill: #f85149; stroke: #f85149; }
  .added-text { fill: #3fb950; }
  .deleted-text { fill: #f85149; }
  .language { fill: #a371f7; }
  .technology { fill: #58a6ff; }
}</style>
<rect class="surface" x="1" y="1" width="718" height="258" rx="12" />
<text class="title" x="28" y="38">Строки кода</text>
<text class="metric added-text" x="28" y="64">добавлено +3 954 101</text>
<text class="metric deleted-text" x="210" y="64">удалено −668 643</text>
<text class="label muted" x="696" y="80" text-anchor="end">строк/день</text>
<line class="grid" x1="54" y1="88" x2="696" y2="88" />
<text class="muted" font-size="10" x="46" y="91.5" text-anchor="end">1 235 574</text>
<line class="grid" x1="54" y1="118.5" x2="696" y2="118.5" />
<text class="muted" font-size="10" x="46" y="122" text-anchor="end">926 681</text>
<line class="grid" x1="54" y1="149" x2="696" y2="149" />
<text class="muted" font-size="10" x="46" y="152.5" text-anchor="end">617 787</text>
<line class="grid" x1="54" y1="179.5" x2="696" y2="179.5" />
<text class="muted" font-size="10" x="46" y="183" text-anchor="end">308 894</text>
<line class="grid" x1="54" y1="210" x2="696" y2="210" />
<text class="muted" font-size="10" x="46" y="213.5" text-anchor="end">0</text>
<polyline class="added-line" points="54,207.66 55.76,209.82 57.53,210 59.29,209.7 61.05,209.92 62.82,208.91 64.58,209.67 66.35,208.51 68.11,210 69.87,209.99 71.64,209.51 73.4,209.89 75.16,209.89 76.93,209.9 78.69,209.92 80.46,210 82.22,210 83.98,209.92 85.75,209.85 87.51,210 89.27,208.86 91.04,209.58 92.8,209.95 94.57,210 96.33,209.09 98.09,210 99.86,204.81 101.62,209.98 103.38,209.85 105.15,210 106.91,209.95 108.68,209.55 110.44,209.91 112.2,209.98 113.97,209.95 115.73,209.3 117.49,209.98 119.26,209.58 121.02,209.9 122.79,210 124.55,209.99 126.31,209.89 128.08,209.68 129.84,209.94 131.6,209.99 133.37,209.87 135.13,209.99 136.9,209.94 138.66,209.97 140.42,210 142.19,209.99 143.95,209.97 145.71,209.5 147.48,209.56 149.24,209.95 151.01,209.95 152.77,209.83 154.53,209.98 156.3,209.99 158.06,207.25 159.82,209.95 161.59,209.96 163.35,209.91 165.12,209.55 166.88,209.85 168.64,209.91 170.41,209.04 172.17,209.59 173.93,209.94 175.7,209.98 177.46,209.93 179.23,209.87 180.99,209.9 182.75,209.99 184.52,209.73 186.28,209.79 188.04,208.96 189.81,209.27 191.57,209.97 193.34,209.94 195.1,209.77 196.86,209.93 198.63,208.69 200.39,209.95 202.15,209.95 203.92,210 205.68,210 207.45,209.79 209.21,209.86 210.97,209.47 212.74,209.17 214.5,209.86 216.26,209.98 218.03,209.97 219.79,208.7 221.55,209.17 223.32,210 225.08,210 226.85,210 228.61,210 230.37,210 232.14,210 233.9,210 235.66,210 237.43,210 239.19,210 240.96,210 242.72,209.87 244.48,209.81 246.25,209.95 248.01,210 249.77,209.93 251.54,209.81 253.3,209.98 255.07,210 256.83,209.81 258.59,209.96 260.36,209.93 262.12,209.93 263.88,209.27 265.65,210 267.41,210 269.18,209.89 270.94,209.51 272.7,209.98 274.47,209.91 276.23,209.75 277.99,210 279.76,210 281.52,209.96 283.29,209.67 285.05,209.94 286.81,209.7 288.58,209.99 290.34,210 292.1,210 293.87,210 295.63,209.95 297.4,209.94 299.16,210 300.92,210 302.69,210 304.45,210 306.21,209.99 307.98,209.92 309.74,208.72 311.51,209.89 313.27,209.74 315.03,210 316.8,210 318.56,210 320.32,210 322.09,209.82 323.85,210 325.62,204.63 327.38,210 329.14,209.93 330.91,209.92 332.67,209.99 334.43,209.97 336.2,210 337.96,210 339.73,210 341.49,210 343.25,210 345.02,210 346.78,209.91 348.54,209.99 350.31,210 352.07,210 353.84,210 355.6,210 357.36,210 359.13,209.72 360.89,210 362.65,210 364.42,210 366.18,210 367.95,210 369.71,210 371.47,210 373.24,210 375,210 376.76,210 378.53,209.38 380.29,210 382.05,209.86 383.82,170.86 385.58,209.93 387.35,209.94 389.11,210 390.87,210 392.64,210 394.4,210 396.16,210 397.93,209.79 399.69,209.76 401.46,209.9 403.22,209.92 404.98,209.88 406.75,209.95 408.51,209.92 410.27,209.97 412.04,210 413.8,210 415.57,210 417.33,209.96 419.09,210 420.86,209.95 422.62,210 424.38,210 426.15,209.84 427.91,210 429.68,210 431.44,209.98 433.2,210 434.97,209.93 436.73,210 438.49,209.99 440.26,210 442.02,209.9 443.79,209.98 445.55,209.98 447.31,210 449.08,210 450.84,210 452.6,210 454.37,210 456.13,209.99 457.9,209.99 459.66,210 461.42,210 463.19,209.66 464.95,209.84 466.71,209.9 468.48,209.92 470.24,209.98 472.01,209.81 473.77,209.82 475.53,209.9 477.3,209.93 479.06,209.98 480.82,209.85 482.59,209.89 484.35,209.88 486.12,209.9 487.88,209.99 489.64,210 491.41,209.83 493.17,209.69 494.93,209.89 496.7,209.86 498.46,209.89 500.23,209.91 501.99,209.95 503.75,209.87 505.52,210 507.28,209.88 509.04,209.8 510.81,209.82 512.57,209.55 514.34,210 516.1,209.88 517.86,209.58 519.63,209.47 521.39,209.98 523.15,209.98 524.92,210 526.68,210 528.45,209.79 530.21,209.97 531.97,209.97 533.74,209.96 535.5,209.9 537.26,210 539.03,209.82 540.79,209.54 542.55,209.63 544.32,209.89 546.08,209.96 547.85,209.91 549.61,209.7 551.37,209.48 553.14,209.89 554.9,209.84 556.66,209.93 558.43,209.79 560.19,209.97 561.96,209.92 563.72,210 565.48,209.99 567.25,209.98 569.01,209.4 570.77,208.47 572.54,208.09 574.3,209.63 576.07,210 577.83,209.73 579.59,208.42 581.36,208.83 583.12,208.99 584.88,210 586.65,208.86 588.41,204.75 590.18,209.24 591.94,209.7 593.7,206.95 595.47,202.94 597.23,203.78 598.99,199.45 600.76,207.88 602.52,209.62 604.29,209.92 606.05,209.72 607.81,207.1 609.58,207.86 611.34,208.37 613.1,206.56 614.87,205.98 616.63,209.51 618.4,205.43 620.16,114.78 621.92,88 623.69,209.6 625.45,209.82 627.21,210 628.98,209.94 630.74,209.94 632.51,210 634.27,210 636.03,208.62 637.8,209.93 639.56,209.84 641.32,209.69 643.09,210 644.85,209.84 646.62,209.81 648.38,210 650.14,208.01 651.91,209.84 653.67,209.45 655.43,209.63 657.2,209.84 658.96,210 660.73,210 662.49,210 664.25,209.82 666.02,208.26 667.78,209.62 669.54,210 671.31,209.99 673.07,209.83 674.84,209.99 676.6,209.77 678.36,209.84 680.13,209.99 681.89,209.46 683.65,209.98 685.42,209.8 687.18,208.59 688.95,208.85 690.71,208.05 692.47,209.52 694.24,209.75 696,209.91" stroke-width="2.4" stroke-linejoin="round" stroke-linecap="round" vector-effect="non-scaling-stroke" />
<polyline class="deleted-line" points="54,209.46 55.76,210 57.53,210 59.29,209.92 61.05,209.95 62.82,209.83 64.58,209.91 66.35,209.68 68.11,210 69.87,209.99 71.64,209.8 73.4,209.96 75.16,209.93 76.93,209.95 78.69,209.98 80.46,210 82.22,210 83.98,209.92 85.75,209.95 87.51,210 89.27,209.14 91.04,207.11 92.8,210 94.57,210 96.33,209.94 98.09,210 99.86,208.91 101.62,209.99 103.38,209.97 105.15,210 106.91,209.99 108.68,209.9 110.44,209.94 112.2,209.98 113.97,209.97 115.73,209.3 117.49,209.99 119.26,209.97 121.02,209.93 122.79,210 124.55,210 126.31,209.92 128.08,209.98 129.84,209.95 131.6,210 133.37,209.91 135.13,209.99 136.9,209.97 138.66,209.92 140.42,210 142.19,209.99 143.95,209.99 145.71,209.93 147.48,209.89 149.24,209.98 151.01,209.96 152.77,209.96 154.53,209.99 156.3,210 158.06,209.32 159.82,209.97 161.59,209.98 163.35,209.92 165.12,209.92 166.88,209.96 168.64,209.97 170.41,209.78 172.17,209.75 173.93,209.97 175.7,209.99 177.46,209.97 179.23,209.98 180.99,209.96 182.75,209.98 184.52,209.89 186.28,209.94 188.04,209.8 189.81,209.94 191.57,209.92 193.34,210 195.1,209.98 196.86,209.97 198.63,209.53 200.39,209.97 202.15,209.99 203.92,210 205.68,210 207.45,209.76 209.21,209.93 210.97,209.75 212.74,209.5 214.5,209.95 216.26,209.99 218.03,209.99 219.79,209.2 221.55,209.91 223.32,210 225.08,210 226.85,210 228.61,210 230.37,210 232.14,210 233.9,210 235.66,210 237.43,210 239.19,210 240.96,210 242.72,209.98 244.48,209.93 246.25,209.98 248.01,210 249.77,209.95 251.54,209.9 253.3,209.99 255.07,210 256.83,209.86 258.59,209.97 260.36,209.94 262.12,209.94 263.88,209.44 265.65,210 267.41,210 269.18,209.99 270.94,209.95 272.7,209.99 274.47,209.99 276.23,209.95 277.99,210 279.76,210 281.52,209.99 283.29,209.95 285.05,209.99 286.81,209.96 288.58,209.99 290.34,210 292.1,210 293.87,210 295.63,209.98 297.4,209.96 299.16,210 300.92,210 302.69,210 304.45,210 306.21,210 307.98,209.96 309.74,209.99 311.51,209.96 313.27,209.95 315.03,210 316.8,210 318.56,210 320.32,210 322.09,209.85 323.85,210 325.62,209.55 327.38,210 329.14,209.97 330.91,209.99 332.67,210 334.43,209.98 336.2,210 337.96,210 339.73,210 341.49,210 343.25,210 345.02,210 346.78,209.99 348.54,210 350.31,210 352.07,210 353.84,210 355.6,210 357.36,210 359.13,209.99 360.89,210 362.65,210 364.42,210 366.18,210 367.95,210 369.71,210 371.47,210 373.24,210 375,210 376.76,210 378.53,210 380.29,210 382.05,209.97 383.82,210 385.58,209.97 387.35,209.99 389.11,210 390.87,210 392.64,210 394.4,210 396.16,210 397.93,210 399.69,209.97 401.46,170.55 403.22,209.99 404.98,209.96 406.75,210 408.51,209.96 410.27,209.99 412.04,210 413.8,210 415.57,210 417.33,209.99 419.09,210 420.86,209.96 422.62,210 424.38,210 426.15,210 427.91,210 429.68,210 431.44,209.99 433.2,210 434.97,209.98 436.73,210 438.49,209.97 440.26,210 442.02,209.96 443.79,209.97 445.55,209.97 447.31,210 449.08,210 450.84,210 452.6,210 454.37,210 456.13,210 457.9,209.99 459.66,210 461.42,210 463.19,210 464.95,209.96 466.71,209.96 468.48,210 470.24,210 472.01,210 473.77,209.98 475.53,209.96 477.3,209.96 479.06,210 480.82,209.94 482.59,209.97 484.35,209.94 486.12,209.99 487.88,210 489.64,210 491.41,209.97 493.17,209.83 494.93,209.98 496.7,209.96 498.46,209.98 500.23,209.98 501.99,209.99 503.75,210 505.52,210 507.28,209.96 509.04,209.8 510.81,209.99 512.57,209.89 514.34,210 516.1,209.99 517.86,209.94 519.63,209.94 521.39,209.97 523.15,209.98 524.92,210 526.68,209.99 528.45,209.96 530.21,209.99 531.97,209.99 533.74,209.99 535.5,209.94 537.26,210 539.03,209.95 540.79,209.97 542.55,209.97 544.32,209.99 546.08,210 547.85,209.97 549.61,209.93 551.37,209.98 553.14,209.94 554.9,209.93 556.66,209.99 558.43,209.92 560.19,210 561.96,209.98 563.72,210 565.48,210 567.25,210 569.01,210 570.77,209.99 572.54,209.94 574.3,209.9 576.07,210 577.83,209.97 579.59,209.92 581.36,209.96 583.12,209.97 584.88,210 586.65,209.98 588.41,209.66 590.18,209.94 591.94,209.95 593.7,209.98 595.47,209.88 597.23,209.92 598.99,209.8 600.76,209.55 602.52,209.93 604.29,209.99 606.05,209.98 607.81,209.91 609.58,209.97 611.34,209.99 613.1,209.05 614.87,207.8 616.63,209.8 618.4,209.94 620.16,209.96 621.92,209.96 623.69,209.98 625.45,210 627.21,210 628.98,209.99 630.74,209.88 632.51,210 634.27,210 636.03,209.92 637.8,209.99 639.56,209.94 641.32,209.78 643.09,210 644.85,209.99 646.62,209.99 648.38,210 650.14,209.9 651.91,209.98 653.67,209.83 655.43,209.99 657.2,209.98 658.96,210 660.73,210 662.49,210 664.25,209.99 666.02,209.97 667.78,209.99 669.54,210 671.31,209.99 673.07,209.97 674.84,210 676.6,209.89 678.36,209.9 680.13,209.99 681.89,210 683.65,210 685.42,209.87 687.18,209.07 688.95,209.8 690.71,209.02 692.47,209.94 694.24,209.93 696,209.97" stroke-width="2.4" stroke-linejoin="round" stroke-linecap="round" vector-effect="non-scaling-stroke" />
<text class="label muted" x="54" y="238">26.09.2025</text>
<text class="label muted" x="696" y="238" text-anchor="end">25.09.2026</text>
</svg>
