<?xml version="1.0" encoding="UTF-8"?>
<svg xmlns="http://www.w3.org/2000/svg" viewBox="0 0 720 260" width="720" height="260" style="max-width:100%;height:auto" role="img" aria-labelledby="title description" preserveAspectRatio="xMidYMid meet">
<title id="title">Строки кода за 365 дней</title>
<desc id="description">Добавлено 3926375, удалено 649504 строк исходного кода.</desc>
<style>text { font-family: -apple-system, BlinkMacSystemFont, "Segoe UI", sans-serif; fill: #1f2328; }
.surface { fill: #ffffff; stroke: #d0d7de; }
.title { font-size: 21px; font-weight: 650; }
.metric { font-size: 14px; font-weight: 600; }
.label { font-size: 12px; }
.muted { fill: #656d76; }
.grid { stroke: #d8dee4; stroke-width: 1; }
.track { fill: #eaeef2; }
.commit-bar { fill: #2f81f7; }
.added-line { fill: none; stroke: #1a7f37; }
.deleted-line { fill: none; stroke: #cf222e; }
.added-marker { fill: #1a7f37; stroke: #1a7f37; }
.deleted-marker { fill: #cf222e; stroke: #cf222e; }
.added-text { fill: #1a7f37; }
.deleted-text { fill: #cf222e; }
.language { fill: #8250df; }
.technology { fill: #0969da; }
@media (prefers-color-scheme: dark) {
  text { fill: #f0f6fc; }
  .surface { fill: #0d1117; stroke: #30363d; }
  .muted { fill: #8b949e; }
  .grid { stroke: #30363d; }
  .track { fill: #21262d; }
  .commit-bar { fill: #58a6ff; }
  .added-line { stroke: #3fb950; }
  .deleted-line { stroke: #f85149; }
  .added-marker { fill: #3fb950; stroke: #3fb950; }
  .deleted-marker { fill: #f85149; stroke: #f85149; }
  .added-text { fill: #3fb950; }
  .deleted-text { fill: #f85149; }
  .language { fill: #a371f7; }
  .technology { fill: #58a6ff; }
}</style>
<rect class="surface" x="1" y="1" width="718" height="258" rx="12" />
<text class="title" x="28" y="38">Строки кода</text>
<text class="metric added-text" x="28" y="64">добавлено +3 926 375</text>
<text class="metric deleted-text" x="210" y="64">удалено −649 504</text>
<text class="label muted" x="696" y="80" text-anchor="end">строк/день</text>
<line class="grid" x1="54" y1="88" x2="696" y2="88" />
<text class="muted" font-size="10" x="46" y="91.5" text-anchor="end">1 235 574</text>
<line class="grid" x1="54" y1="118.5" x2="696" y2="118.5" />
<text class="muted" font-size="10" x="46" y="122" text-anchor="end">926 681</text>
<line class="grid" x1="54" y1="149" x2="696" y2="149" />
<text class="muted" font-size="10" x="46" y="152.5" text-anchor="end">617 787</text>
<line class="grid" x1="54" y1="179.5" x2="696" y2="179.5" />
<text class="muted" font-size="10" x="46" y="183" text-anchor="end">308 894</text>
<line class="grid" x1="54" y1="210" x2="696" y2="210" />
<text class="muted" font-size="10" x="46" y="213.5" text-anchor="end">0</text>
<polyline class="added-line" points="54,209.8 55.76,210 57.53,209.96 59.29,208.53 61.05,209.57 62.82,209.38 64.58,209.96 66.35,207.66 68.11,209.82 69.87,210 71.64,209.7 73.4,209.92 75.16,208.91 76.93,209.67 78.69,208.51 80.46,210 82.22,209.99 83.98,209.51 85.75,209.89 87.51,209.89 89.27,209.9 91.04,209.92 92.8,210 94.57,210 96.33,209.92 98.09,209.85 99.86,210 101.62,208.86 103.38,209.58 105.15,209.95 106.91,210 108.68,209.09 110.44,210 112.2,204.81 113.97,209.98 115.73,209.85 117.49,210 119.26,209.95 121.02,209.55 122.79,209.91 124.55,209.98 126.31,209.95 128.08,209.3 129.84,209.98 131.6,209.58 133.37,209.9 135.13,210 136.9,209.99 138.66,209.89 140.42,209.68 142.19,209.94 143.95,209.99 145.71,209.87 147.48,209.99 149.24,209.94 151.01,209.97 152.77,210 154.53,209.99 156.3,209.97 158.06,209.5 159.82,209.56 161.59,209.95 163.35,209.95 165.12,209.83 166.88,209.98 168.64,209.99 170.41,207.25 172.17,209.95 173.93,209.96 175.7,209.91 177.46,209.55 179.23,209.85 180.99,209.91 182.75,209.04 184.52,209.59 186.28,209.94 188.04,209.98 189.81,209.93 191.57,209.87 193.34,209.9 195.1,209.99 196.86,209.73 198.63,209.79 200.39,208.96 202.15,209.27 203.92,209.97 205.68,209.94 207.45,209.77 209.21,209.93 210.97,208.69 212.74,209.95 214.5,209.95 216.26,210 218.03,210 219.79,209.79 221.55,209.86 223.32,209.47 225.08,209.17 226.85,209.86 228.61,209.98 230.37,209.97 232.14,208.7 233.9,209.17 235.66,210 237.43,210 239.19,210 240.96,210 242.72,210 244.48,210 246.25,210 248.01,210 249.77,210 251.54,210 253.3,210 255.07,209.87 256.83,209.81 258.59,209.95 260.36,210 262.12,209.93 263.88,209.81 265.65,209.98 267.41,210 269.18,209.81 270.94,209.96 272.7,209.93 274.47,209.93 276.23,209.27 277.99,210 279.76,210 281.52,209.89 283.29,209.51 285.05,209.98 286.81,209.91 288.58,209.75 290.34,210 292.1,210 293.87,209.96 295.63,209.67 297.4,209.94 299.16,209.7 300.92,209.99 302.69,210 304.45,210 306.21,210 307.98,209.95 309.74,209.94 311.51,210 313.27,210 315.03,210 316.8,210 318.56,209.99 320.32,209.92 322.09,208.72 323.85,209.89 325.62,209.74 327.38,210 329.14,210 330.91,210 332.67,210 334.43,209.82 336.2,210 337.96,204.63 339.73,210 341.49,209.93 343.25,209.92 345.02,209.99 346.78,209.97 348.54,210 350.31,210 352.07,210 353.84,210 355.6,210 357.36,210 359.13,209.91 360.89,209.99 362.65,210 364.42,210 366.18,210 367.95,210 369.71,210 371.47,209.72 373.24,210 375,210 376.76,210 378.53,210 380.29,210 382.05,210 383.82,210 385.58,210 387.35,210 389.11,210 390.87,209.38 392.64,210 394.4,209.86 396.16,170.86 397.93,209.93 399.69,209.94 401.46,210 403.22,210 404.98,210 406.75,210 408.51,210 410.27,209.79 412.04,209.76 413.8,209.9 415.57,209.92 417.33,209.88 419.09,209.95 420.86,209.92 422.62,209.97 424.38,210 426.15,210 427.91,210 429.68,209.96 431.44,210 433.2,209.95 434.97,210 436.73,210 438.49,209.84 440.26,210 442.02,210 443.79,209.98 445.55,210 447.31,209.93 449.08,210 450.84,209.99 452.6,210 454.37,209.9 456.13,209.98 457.9,209.98 459.66,210 461.42,210 463.19,210 464.95,210 466.71,210 468.48,209.99 470.24,209.99 472.01,210 473.77,210 475.53,209.66 477.3,209.84 479.06,209.9 480.82,209.92 482.59,209.98 484.35,209.81 486.12,209.82 487.88,209.9 489.64,209.93 491.41,209.98 493.17,209.85 494.93,209.89 496.7,209.88 498.46,209.9 500.23,209.99 501.99,210 503.75,209.83 505.52,209.69 507.28,209.89 509.04,209.86 510.81,209.89 512.57,209.91 514.34,209.95 516.1,209.87 517.86,210 519.63,209.88 521.39,209.8 523.15,209.82 524.92,209.55 526.68,210 528.45,209.88 530.21,209.58 531.97,209.47 533.74,209.98 535.5,209.98 537.26,210 539.03,210 540.79,209.79 542.55,209.97 544.32,209.97 546.08,209.96 547.85,209.9 549.61,210 551.37,209.82 553.14,209.54 554.9,209.63 556.66,209.89 558.43,209.96 560.19,209.91 561.96,209.7 563.72,209.48 565.48,209.89 567.25,209.84 569.01,209.93 570.77,209.79 572.54,209.97 574.3,209.92 576.07,210 577.83,209.99 579.59,209.98 581.36,209.4 583.12,208.47 584.88,208.09 586.65,209.63 588.41,210 590.18,209.73 591.94,208.42 593.7,208.83 595.47,208.99 597.23,210 598.99,208.86 600.76,204.75 602.52,209.24 604.29,209.7 606.05,206.95 607.81,202.94 609.58,203.78 611.34,199.45 613.1,207.88 614.87,209.62 616.63,209.92 618.4,209.72 620.16,207.1 621.92,207.86 623.69,208.37 625.45,206.56 627.21,205.98 628.98,209.51 630.74,205.43 632.51,114.78 634.27,88 636.03,209.6 637.8,209.82 639.56,210 641.32,209.94 643.09,209.94 644.85,210 646.62,210 648.38,208.62 650.14,209.93 651.91,209.84 653.67,209.69 655.43,210 657.2,209.84 658.96,209.81 660.73,210 662.49,208.01 664.25,209.84 666.02,209.45 667.78,209.63 669.54,209.84 671.31,210 673.07,210 674.84,210 676.6,209.82 678.36,208.26 680.13,209.62 681.89,210 683.65,209.99 685.42,209.83 687.18,209.99 688.95,209.77 690.71,209.84 692.47,209.99 694.24,209.46 696,209.98" stroke-width="2.4" stroke-linejoin="round" stroke-linecap="round" vector-effect="non-scaling-stroke" />
<polyline class="deleted-line" points="54,209.98 55.76,210 57.53,209.99 59.29,209.83 61.05,209.82 62.82,209.87 64.58,209.99 66.35,209.46 68.11,210 69.87,210 71.64,209.92 73.4,209.95 75.16,209.83 76.93,209.91 78.69,209.68 80.46,210 82.22,209.99 83.98,209.8 85.75,209.96 87.51,209.93 89.27,209.95 91.04,209.98 92.8,210 94.57,210 96.33,209.92 98.09,209.95 99.86,210 101.62,209.14 103.38,207.11 105.15,210 106.91,210 108.68,209.94 110.44,210 112.2,208.91 113.97,209.99 115.73,209.97 117.49,210 119.26,209.99 121.02,209.9 122.79,209.94 124.55,209.98 126.31,209.97 128.08,209.3 129.84,209.99 131.6,209.97 133.37,209.93 135.13,210 136.9,210 138.66,209.92 140.42,209.98 142.19,209.95 143.95,210 145.71,209.91 147.48,209.99 149.24,209.97 151.01,209.92 152.77,210 154.53,209.99 156.3,209.99 158.06,209.93 159.82,209.89 161.59,209.98 163.35,209.96 165.12,209.96 166.88,209.99 168.64,210 170.41,209.32 172.17,209.97 173.93,209.98 175.7,209.92 177.46,209.92 179.23,209.96 180.99,209.97 182.75,209.78 184.52,209.75 186.28,209.97 188.04,209.99 189.81,209.97 191.57,209.98 193.34,209.96 195.1,209.98 196.86,209.89 198.63,209.94 200.39,209.8 202.15,209.94 203.92,209.92 205.68,210 207.45,209.98 209.21,209.97 210.97,209.53 212.74,209.97 214.5,209.99 216.26,210 218.03,210 219.79,209.76 221.55,209.93 223.32,209.75 225.08,209.5 226.85,209.95 228.61,209.99 230.37,209.99 232.14,209.2 233.9,209.91 235.66,210 237.43,210 239.19,210 240.96,210 242.72,210 244.48,210 246.25,210 248.01,210 249.77,210 251.54,210 253.3,210 255.07,209.98 256.83,209.93 258.59,209.98 260.36,210 262.12,209.95 263.88,209.9 265.65,209.99 267.41,210 269.18,209.86 270.94,209.97 272.7,209.94 274.47,209.94 276.23,209.44 277.99,210 279.76,210 281.52,209.99 283.29,209.95 285.05,209.99 286.81,209.99 288.58,209.95 290.34,210 292.1,210 293.87,209.99 295.63,209.95 297.4,209.99 299.16,209.96 300.92,209.99 302.69,210 304.45,210 306.21,210 307.98,209.98 309.74,209.96 311.51,210 313.27,210 315.03,210 316.8,210 318.56,210 320.32,209.96 322.09,209.99 323.85,209.96 325.62,209.95 327.38,210 329.14,210 330.91,210 332.67,210 334.43,209.85 336.2,210 337.96,209.55 339.73,210 341.49,209.97 343.25,209.99 345.02,210 346.78,209.98 348.54,210 350.31,210 352.07,210 353.84,210 355.6,210 357.36,210 359.13,209.99 360.89,210 362.65,210 364.42,210 366.18,210 367.95,210 369.71,210 371.47,209.99 373.24,210 375,210 376.76,210 378.53,210 380.29,210 382.05,210 383.82,210 385.58,210 387.35,210 389.11,210 390.87,210 392.64,210 394.4,209.97 396.16,210 397.93,209.97 399.69,209.99 401.46,210 403.22,210 404.98,210 406.75,210 408.51,210 410.27,210 412.04,209.97 413.8,170.55 415.57,209.99 417.33,209.96 419.09,210 420.86,209.96 422.62,209.99 424.38,210 426.15,210 427.91,210 429.68,209.99 431.44,210 433.2,209.96 434.97,210 436.73,210 438.49,210 440.26,210 442.02,210 443.79,209.99 445.55,210 447.31,209.98 449.08,210 450.84,209.97 452.6,210 454.37,209.96 456.13,209.97 457.9,209.97 459.66,210 461.42,210 463.19,210 464.95,210 466.71,210 468.48,210 470.24,209.99 472.01,210 473.77,210 475.53,210 477.3,209.96 479.06,209.96 480.82,210 482.59,210 484.35,210 486.12,209.98 487.88,209.96 489.64,209.96 491.41,210 493.17,209.94 494.93,209.97 496.7,209.94 498.46,209.99 500.23,210 501.99,210 503.75,209.97 505.52,209.83 507.28,209.98 509.04,209.96 510.81,209.98 512.57,209.98 514.34,209.99 516.1,210 517.86,210 519.63,209.96 521.39,209.8 523.15,209.99 524.92,209.89 526.68,210 528.45,209.99 530.21,209.94 531.97,209.94 533.74,209.97 535.5,209.98 537.26,210 539.03,209.99 540.79,209.96 542.55,209.99 544.32,209.99 546.08,209.99 547.85,209.94 549.61,210 551.37,209.95 553.14,209.97 554.9,209.97 556.66,209.99 558.43,210 560.19,209.97 561.96,209.93 563.72,209.98 565.48,209.94 567.25,209.93 569.01,209.99 570.77,209.92 572.54,210 574.3,209.98 576.07,210 577.83,210 579.59,210 581.36,210 583.12,209.99 584.88,209.94 586.65,209.9 588.41,210 590.18,209.97 591.94,209.92 593.7,209.96 595.47,209.97 597.23,210 598.99,209.98 600.76,209.66 602.52,209.94 604.29,209.95 606.05,209.98 607.81,209.88 609.58,209.92 611.34,209.8 613.1,209.55 614.87,209.93 616.63,209.99 618.4,209.98 620.16,209.91 621.92,209.97 623.69,209.99 625.45,209.05 627.21,207.8 628.98,209.8 630.74,209.94 632.51,209.96 634.27,209.96 636.03,209.98 637.8,210 639.56,210 641.32,209.99 643.09,209.88 644.85,210 646.62,210 648.38,209.92 650.14,209.99 651.91,209.94 653.67,209.78 655.43,210 657.2,209.99 658.96,209.99 660.73,210 662.49,209.9 664.25,209.98 666.02,209.83 667.78,209.99 669.54,209.98 671.31,210 673.07,210 674.84,210 676.6,209.99 678.36,209.97 680.13,209.99 681.89,210 683.65,209.99 685.42,209.97 687.18,210 688.95,209.89 690.71,209.9 692.47,209.99 694.24,210 696,210" stroke-width="2.4" stroke-linejoin="round" stroke-linecap="round" vector-effect="non-scaling-stroke" />
<text class="label muted" x="54" y="238">19.09.2025</text>
<text class="label muted" x="696" y="238" text-anchor="end">18.09.2026</text>
</svg>
