<?xml version="1.0" encoding="UTF-8"?>
<svg xmlns="http://www.w3.org/2000/svg" viewBox="0 0 720 260" width="720" height="260" style="max-width:100%;height:auto" role="img" aria-labelledby="title description" preserveAspectRatio="xMidYMid meet">
<title id="title">Строки кода за 365 дней</title>
<desc id="description">Добавлено 3992193, удалено 686078 строк исходного кода.</desc>
<style>text { font-family: -apple-system, BlinkMacSystemFont, "Segoe UI", sans-serif; fill: #1f2328; }
.surface { fill: #ffffff; stroke: #d0d7de; }
.title { font-size: 21px; font-weight: 650; }
.metric { font-size: 14px; font-weight: 600; }
.label { font-size: 12px; }
.muted { fill: #656d76; }
.grid { stroke: #d8dee4; stroke-width: 1; }
.track { fill: #eaeef2; }
.commit-bar { fill: #2f81f7; }
.added-line { fill: none; stroke: #1a7f37; }
.deleted-line { fill: none; stroke: #cf222e; }
.added-marker { fill: #1a7f37; stroke: #1a7f37; }
.deleted-marker { fill: #cf222e; stroke: #cf222e; }
.added-text { fill: #1a7f37; }
.deleted-text { fill: #cf222e; }
.language { fill: #8250df; }
.technology { fill: #0969da; }
@media (prefers-color-scheme: dark) {
  text { fill: #f0f6fc; }
  .surface { fill: #0d1117; stroke: #30363d; }
  .muted { fill: #8b949e; }
  .grid { stroke: #30363d; }
  .track { fill: #21262d; }
  .commit-bar { fill: #58a6ff; }
  .added-line { stroke: #3fb950; }
  .deleted-line { stroke: #f85149; }
  .added-marker { fill: #3fb950; stroke: #3fb950; }
  .deleted-marker { fill: #f85149; stroke: #f85149; }
  .added-text { fill: #3fb950; }
  .deleted-text { fill: #f85149; }
  .language { fill: #a371f7; }
  .technology { fill: #58a6ff; }
}</style>
<rect class="surface" x="1" y="1" width="718" height="258" rx="12" />
<text class="title" x="28" y="38">Строки кода</text>
<text class="metric added-text" x="28" y="64">добавлено +3 992 193</text>
<text class="metric deleted-text" x="210" y="64">удалено −686 078</text>
<text class="label muted" x="696" y="80" text-anchor="end">строк/день</text>
<line class="grid" x1="54" y1="88" x2="696" y2="88" />
<text class="muted" font-size="10" x="46" y="91.5" text-anchor="end">1 235 574</text>
<line class="grid" x1="54" y1="118.5" x2="696" y2="118.5" />
<text class="muted" font-size="10" x="46" y="122" text-anchor="end">926 681</text>
<line class="grid" x1="54" y1="149" x2="696" y2="149" />
<text class="muted" font-size="10" x="46" y="152.5" text-anchor="end">617 787</text>
<line class="grid" x1="54" y1="179.5" x2="696" y2="179.5" />
<text class="muted" font-size="10" x="46" y="183" text-anchor="end">308 894</text>
<line class="grid" x1="54" y1="210" x2="696" y2="210" />
<text class="muted" font-size="10" x="46" y="213.5" text-anchor="end">0</text>
<polyline class="added-line" points="54,209.84 55.76,209.79 57.53,209.97 59.29,209.73 61.05,208.52 62.82,209.91 64.58,209.92 66.35,209.92 68.11,207.94 69.87,207.21 71.64,208.87 73.4,209.97 75.16,209.71 76.93,209.98 78.69,209.98 80.46,209.95 82.22,209.96 83.98,207.84 85.75,209.85 87.51,209.65 89.27,209.46 91.04,209.49 92.8,209.85 94.57,209.99 96.33,208.79 98.09,209.86 99.86,209.8 101.62,210 103.38,209.96 105.15,208.53 106.91,209.57 108.68,209.38 110.44,209.96 112.2,207.66 113.97,209.82 115.73,210 117.49,209.7 119.26,209.92 121.02,208.91 122.79,209.67 124.55,208.51 126.31,210 128.08,209.99 129.84,209.51 131.6,209.89 133.37,209.89 135.13,209.9 136.9,209.92 138.66,210 140.42,210 142.19,209.92 143.95,209.85 145.71,210 147.48,208.86 149.24,209.58 151.01,209.95 152.77,210 154.53,209.09 156.3,210 158.06,204.81 159.82,209.98 161.59,209.85 163.35,210 165.12,209.95 166.88,209.55 168.64,209.91 170.41,209.98 172.17,209.95 173.93,209.3 175.7,209.98 177.46,209.58 179.23,209.9 180.99,210 182.75,209.99 184.52,209.89 186.28,209.68 188.04,209.94 189.81,209.99 191.57,209.87 193.34,209.99 195.1,209.94 196.86,209.97 198.63,210 200.39,209.99 202.15,209.97 203.92,209.5 205.68,209.56 207.45,209.95 209.21,209.95 210.97,209.83 212.74,209.98 214.5,209.99 216.26,207.25 218.03,209.95 219.79,209.96 221.55,209.91 223.32,209.55 225.08,209.85 226.85,209.91 228.61,209.04 230.37,209.59 232.14,209.94 233.9,209.98 235.66,209.93 237.43,209.87 239.19,209.9 240.96,209.99 242.72,209.73 244.48,209.79 246.25,208.96 248.01,209.27 249.77,209.97 251.54,209.94 253.3,209.77 255.07,209.93 256.83,208.69 258.59,209.95 260.36,209.95 262.12,210 263.88,210 265.65,209.79 267.41,209.86 269.18,209.47 270.94,209.17 272.7,209.86 274.47,209.98 276.23,209.97 277.99,208.7 279.76,209.17 281.52,210 283.29,210 285.05,210 286.81,210 288.58,210 290.34,210 292.1,210 293.87,210 295.63,210 297.4,210 299.16,210 300.92,209.87 302.69,209.81 304.45,209.95 306.21,210 307.98,209.93 309.74,209.81 311.51,209.98 313.27,210 315.03,209.81 316.8,209.96 318.56,209.93 320.32,209.93 322.09,209.27 323.85,210 325.62,210 327.38,209.89 329.14,209.51 330.91,209.98 332.67,209.91 334.43,209.75 336.2,210 337.96,210 339.73,209.96 341.49,209.67 343.25,209.94 345.02,209.7 346.78,209.99 348.54,210 350.31,210 352.07,210 353.84,209.95 355.6,209.94 357.36,210 359.13,210 360.89,210 362.65,210 364.42,209.99 366.18,209.92 367.95,208.72 369.71,209.89 371.47,209.74 373.24,210 375,210 376.76,210 378.53,210 380.29,209.82 382.05,210 383.82,204.63 385.58,210 387.35,209.93 389.11,209.92 390.87,209.99 392.64,209.97 394.4,210 396.16,210 397.93,210 399.69,210 401.46,210 403.22,210 404.98,209.91 406.75,209.99 408.51,210 410.27,210 412.04,210 413.8,210 415.57,210 417.33,209.72 419.09,210 420.86,210 422.62,210 424.38,210 426.15,210 427.91,210 429.68,210 431.44,210 433.2,210 434.97,210 436.73,209.38 438.49,210 440.26,209.86 442.02,170.86 443.79,209.93 445.55,209.94 447.31,210 449.08,210 450.84,210 452.6,210 454.37,210 456.13,209.79 457.9,209.76 459.66,209.9 461.42,209.92 463.19,209.88 464.95,209.95 466.71,209.92 468.48,209.97 470.24,210 472.01,210 473.77,210 475.53,209.96 477.3,210 479.06,209.95 480.82,210 482.59,210 484.35,209.84 486.12,210 487.88,210 489.64,209.98 491.41,210 493.17,209.93 494.93,210 496.7,209.99 498.46,210 500.23,209.9 501.99,209.98 503.75,209.98 505.52,210 507.28,210 509.04,210 510.81,210 512.57,210 514.34,209.99 516.1,209.99 517.86,210 519.63,210 521.39,209.66 523.15,209.84 524.92,209.9 526.68,209.92 528.45,209.98 530.21,209.81 531.97,209.82 533.74,209.9 535.5,209.93 537.26,209.98 539.03,209.85 540.79,209.89 542.55,209.88 544.32,209.9 546.08,209.99 547.85,210 549.61,209.83 551.37,209.69 553.14,209.89 554.9,209.86 556.66,209.89 558.43,209.91 560.19,209.95 561.96,209.87 563.72,210 565.48,209.88 567.25,209.8 569.01,209.82 570.77,209.55 572.54,210 574.3,209.88 576.07,209.58 577.83,209.47 579.59,209.98 581.36,209.98 583.12,210 584.88,210 586.65,209.79 588.41,209.97 590.18,209.97 591.94,209.96 593.7,209.9 595.47,210 597.23,209.82 598.99,209.54 600.76,209.63 602.52,209.89 604.29,209.96 606.05,209.91 607.81,209.7 609.58,209.48 611.34,209.89 613.1,209.84 614.87,209.93 616.63,209.79 618.4,209.97 620.16,209.92 621.92,210 623.69,209.99 625.45,209.98 627.21,209.4 628.98,208.47 630.74,208.09 632.51,209.63 634.27,210 636.03,209.73 637.8,208.42 639.56,208.83 641.32,208.99 643.09,210 644.85,208.86 646.62,204.75 648.38,209.24 650.14,209.7 651.91,206.95 653.67,202.94 655.43,203.78 657.2,199.45 658.96,207.88 660.73,209.62 662.49,209.92 664.25,209.72 666.02,207.1 667.78,207.86 669.54,208.37 671.31,206.56 673.07,205.98 674.84,209.51 676.6,205.43 678.36,114.78 680.13,88 681.89,209.6 683.65,209.82 685.42,210 687.18,209.94 688.95,209.94 690.71,210 692.47,210 694.24,208.62 696,210" stroke-width="2.4" stroke-linejoin="round" stroke-linecap="round" vector-effect="non-scaling-stroke" />
<polyline class="deleted-line" points="54,209.98 55.76,209.89 57.53,209.99 59.29,209.95 61.05,209.74 62.82,209.95 64.58,209.95 66.35,209.99 68.11,209.69 69.87,208.1 71.64,209.35 73.4,210 75.16,209.86 76.93,209.97 78.69,209.99 80.46,209.99 82.22,209.98 83.98,209.68 85.75,209.95 87.51,209.93 89.27,209.93 91.04,209.87 92.8,209.9 94.57,210 96.33,209.85 98.09,209.97 99.86,209.98 101.62,210 103.38,209.99 105.15,209.83 106.91,209.82 108.68,209.87 110.44,209.99 112.2,209.46 113.97,210 115.73,210 117.49,209.92 119.26,209.95 121.02,209.83 122.79,209.91 124.55,209.68 126.31,210 128.08,209.99 129.84,209.8 131.6,209.96 133.37,209.93 135.13,209.95 136.9,209.98 138.66,210 140.42,210 142.19,209.92 143.95,209.95 145.71,210 147.48,209.14 149.24,207.11 151.01,210 152.77,210 154.53,209.94 156.3,210 158.06,208.91 159.82,209.99 161.59,209.97 163.35,210 165.12,209.99 166.88,209.9 168.64,209.94 170.41,209.98 172.17,209.97 173.93,209.3 175.7,209.99 177.46,209.97 179.23,209.93 180.99,210 182.75,210 184.52,209.92 186.28,209.98 188.04,209.95 189.81,210 191.57,209.91 193.34,209.99 195.1,209.97 196.86,209.92 198.63,210 200.39,209.99 202.15,209.99 203.92,209.93 205.68,209.89 207.45,209.98 209.21,209.96 210.97,209.96 212.74,209.99 214.5,210 216.26,209.32 218.03,209.97 219.79,209.98 221.55,209.92 223.32,209.92 225.08,209.96 226.85,209.97 228.61,209.78 230.37,209.75 232.14,209.97 233.9,209.99 235.66,209.97 237.43,209.98 239.19,209.96 240.96,209.98 242.72,209.89 244.48,209.94 246.25,209.8 248.01,209.94 249.77,209.92 251.54,210 253.3,209.98 255.07,209.97 256.83,209.53 258.59,209.97 260.36,209.99 262.12,210 263.88,210 265.65,209.76 267.41,209.93 269.18,209.75 270.94,209.5 272.7,209.95 274.47,209.99 276.23,209.99 277.99,209.2 279.76,209.91 281.52,210 283.29,210 285.05,210 286.81,210 288.58,210 290.34,210 292.1,210 293.87,210 295.63,210 297.4,210 299.16,210 300.92,209.98 302.69,209.93 304.45,209.98 306.21,210 307.98,209.95 309.74,209.9 311.51,209.99 313.27,210 315.03,209.86 316.8,209.97 318.56,209.94 320.32,209.94 322.09,209.44 323.85,210 325.62,210 327.38,209.99 329.14,209.95 330.91,209.99 332.67,209.99 334.43,209.95 336.2,210 337.96,210 339.73,209.99 341.49,209.95 343.25,209.99 345.02,209.96 346.78,209.99 348.54,210 350.31,210 352.07,210 353.84,209.98 355.6,209.96 357.36,210 359.13,210 360.89,210 362.65,210 364.42,210 366.18,209.96 367.95,209.99 369.71,209.96 371.47,209.95 373.24,210 375,210 376.76,210 378.53,210 380.29,209.85 382.05,210 383.82,209.55 385.58,210 387.35,209.97 389.11,209.99 390.87,210 392.64,209.98 394.4,210 396.16,210 397.93,210 399.69,210 401.46,210 403.22,210 404.98,209.99 406.75,210 408.51,210 410.27,210 412.04,210 413.8,210 415.57,210 417.33,209.99 419.09,210 420.86,210 422.62,210 424.38,210 426.15,210 427.91,210 429.68,210 431.44,210 433.2,210 434.97,210 436.73,210 438.49,210 440.26,209.97 442.02,210 443.79,209.97 445.55,209.99 447.31,210 449.08,210 450.84,210 452.6,210 454.37,210 456.13,210 457.9,209.97 459.66,170.55 461.42,209.99 463.19,209.96 464.95,210 466.71,209.96 468.48,209.99 470.24,210 472.01,210 473.77,210 475.53,209.99 477.3,210 479.06,209.96 480.82,210 482.59,210 484.35,210 486.12,210 487.88,210 489.64,209.99 491.41,210 493.17,209.98 494.93,210 496.7,209.97 498.46,210 500.23,209.96 501.99,209.97 503.75,209.97 505.52,210 507.28,210 509.04,210 510.81,210 512.57,210 514.34,210 516.1,209.99 517.86,210 519.63,210 521.39,210 523.15,209.96 524.92,209.96 526.68,210 528.45,210 530.21,210 531.97,209.98 533.74,209.96 535.5,209.96 537.26,210 539.03,209.94 540.79,209.97 542.55,209.94 544.32,209.99 546.08,210 547.85,210 549.61,209.97 551.37,209.83 553.14,209.98 554.9,209.96 556.66,209.98 558.43,209.98 560.19,209.99 561.96,210 563.72,210 565.48,209.96 567.25,209.8 569.01,209.99 570.77,209.89 572.54,210 574.3,209.99 576.07,209.94 577.83,209.94 579.59,209.97 581.36,209.98 583.12,210 584.88,209.99 586.65,209.96 588.41,209.99 590.18,209.99 591.94,209.99 593.7,209.94 595.47,210 597.23,209.95 598.99,209.97 600.76,209.97 602.52,209.99 604.29,210 606.05,209.97 607.81,209.93 609.58,209.98 611.34,209.94 613.1,209.93 614.87,209.99 616.63,209.92 618.4,210 620.16,209.98 621.92,210 623.69,210 625.45,210 627.21,210 628.98,209.99 630.74,209.94 632.51,209.9 634.27,210 636.03,209.97 637.8,209.92 639.56,209.96 641.32,209.97 643.09,210 644.85,209.98 646.62,209.66 648.38,209.94 650.14,209.95 651.91,209.98 653.67,209.88 655.43,209.92 657.2,209.8 658.96,209.55 660.73,209.93 662.49,209.99 664.25,209.98 666.02,209.91 667.78,209.97 669.54,209.99 671.31,209.05 673.07,207.8 674.84,209.8 676.6,209.94 678.36,209.96 680.13,209.96 681.89,209.98 683.65,210 685.42,210 687.18,209.99 688.95,209.88 690.71,210 692.47,210 694.24,209.92 696,209.99" stroke-width="2.4" stroke-linejoin="round" stroke-linecap="round" vector-effect="non-scaling-stroke" />
<text class="label muted" x="54" y="238">24.08.2025</text>
<text class="label muted" x="696" y="238" text-anchor="end">23.08.2026</text>
</svg>
