<?xml version="1.0" encoding="UTF-8"?>
<svg xmlns="http://www.w3.org/2000/svg" viewBox="0 0 720 260" width="720" height="260" style="max-width:100%;height:auto" role="img" aria-labelledby="title description" preserveAspectRatio="xMidYMid meet">
<title id="title">Строки кода за 7 дней</title>
<desc id="description">Добавлено 52810, удалено 23272 строк исходного кода.</desc>
<style>text { font-family: -apple-system, BlinkMacSystemFont, "Segoe UI", sans-serif; fill: #1f2328; }
.surface { fill: #ffffff; stroke: #d0d7de; }
.title { font-size: 21px; font-weight: 650; }
.metric { font-size: 14px; font-weight: 600; }
.label { font-size: 12px; }
.muted { fill: #656d76; }
.grid { stroke: #d8dee4; stroke-width: 1; }
.track { fill: #eaeef2; }
.commit-bar { fill: #2f81f7; }
.added-line { fill: none; stroke: #1a7f37; }
.deleted-line { fill: none; stroke: #cf222e; }
.added-marker { fill: #1a7f37; stroke: #1a7f37; }
.deleted-marker { fill: #cf222e; stroke: #cf222e; }
.added-text { fill: #1a7f37; }
.deleted-text { fill: #cf222e; }
.language { fill: #8250df; }
.technology { fill: #0969da; }
@media (prefers-color-scheme: dark) {
  text { fill: #f0f6fc; }
  .surface { fill: #0d1117; stroke: #30363d; }
  .muted { fill: #8b949e; }
  .grid { stroke: #30363d; }
  .track { fill: #21262d; }
  .commit-bar { fill: #58a6ff; }
  .added-line { stroke: #3fb950; }
  .deleted-line { stroke: #f85149; }
  .added-marker { fill: #3fb950; stroke: #3fb950; }
  .deleted-marker { fill: #f85149; stroke: #f85149; }
  .added-text { fill: #3fb950; }
  .deleted-text { fill: #f85149; }
  .language { fill: #a371f7; }
  .technology { fill: #58a6ff; }
}</style>
<rect class="surface" x="1" y="1" width="718" height="258" rx="12" />
<text class="title" x="28" y="38">Строки кода</text>
<text class="metric added-text" x="28" y="64">добавлено +52 810</text>
<text class="metric deleted-text" x="210" y="64">удалено −23 272</text>
<text class="label muted" x="696" y="80" text-anchor="end">строк/день</text>
<line class="grid" x1="54" y1="88" x2="696" y2="88" />
<text class="muted" font-size="10" x="46" y="91.5" text-anchor="end">19 752</text>
<line class="grid" x1="54" y1="118.5" x2="696" y2="118.5" />
<text class="muted" font-size="10" x="46" y="122" text-anchor="end">14 814</text>
<line class="grid" x1="54" y1="149" x2="696" y2="149" />
<text class="muted" font-size="10" x="46" y="152.5" text-anchor="end">9 876</text>
<line class="grid" x1="54" y1="179.5" x2="696" y2="179.5" />
<text class="muted" font-size="10" x="46" y="183" text-anchor="end">4 938</text>
<line class="grid" x1="54" y1="210" x2="696" y2="210" />
<text class="muted" font-size="10" x="46" y="213.5" text-anchor="end">0</text>
<polyline class="added-line" points="54,208.9 161,197.71 268,121.5 375,137.86 482,88 589,179.85 696,210" stroke-width="2.4" stroke-linejoin="round" stroke-linecap="round" vector-effect="non-scaling-stroke" />
<polyline class="deleted-line" points="54,209.98 161,202.16 268,152.03 375,197.25 482,148.43 589,206.42 696,210" stroke-width="2.4" stroke-linejoin="round" stroke-linecap="round" vector-effect="non-scaling-stroke" />
<circle class="added-marker" cx="54" cy="208.9" r="2.4"><title>2026-09-18: 178</title></circle>
<circle class="added-marker" cx="161" cy="197.71" r="2.4"><title>2026-09-19: 1990</title></circle>
<circle class="added-marker" cx="268" cy="121.5" r="2.4"><title>2026-09-20: 14329</title></circle>
<circle class="added-marker" cx="375" cy="137.86" r="2.4"><title>2026-09-21: 11679</title></circle>
<circle class="added-marker" cx="482" cy="88" r="2.4"><title>2026-09-22: 19752</title></circle>
<circle class="added-marker" cx="589" cy="179.85" r="2.4"><title>2026-09-23: 4882</title></circle>
<circle class="added-marker" cx="696" cy="210" r="2.4"><title>2026-09-24: 0</title></circle>
<circle class="deleted-marker" cx="54" cy="209.98" r="2.4"><title>2026-09-18: 4</title></circle>
<circle class="deleted-marker" cx="161" cy="202.16" r="2.4"><title>2026-09-19: 1269</title></circle>
<circle class="deleted-marker" cx="268" cy="152.03" r="2.4"><title>2026-09-20: 9386</title></circle>
<circle class="deleted-marker" cx="375" cy="197.25" r="2.4"><title>2026-09-21: 2064</title></circle>
<circle class="deleted-marker" cx="482" cy="148.43" r="2.4"><title>2026-09-22: 9969</title></circle>
<circle class="deleted-marker" cx="589" cy="206.42" r="2.4"><title>2026-09-23: 580</title></circle>
<circle class="deleted-marker" cx="696" cy="210" r="2.4"><title>2026-09-24: 0</title></circle>
<text class="label muted" x="54" y="238">18.09.2026</text>
<text class="label muted" x="696" y="238" text-anchor="end">24.09.2026</text>
</svg>
