<?xml version="1.0" encoding="UTF-8"?>
<svg xmlns="http://www.w3.org/2000/svg" viewBox="0 0 720 260" width="720" height="260" style="max-width:100%;height:auto" role="img" aria-labelledby="title description" preserveAspectRatio="xMidYMid meet">
<title id="title">Строки кода за 365 дней</title>
<desc id="description">Добавлено 3942109, удалено 660223 строк исходного кода.</desc>
<style>text { font-family: -apple-system, BlinkMacSystemFont, "Segoe UI", sans-serif; fill: #1f2328; }
.surface { fill: #ffffff; stroke: #d0d7de; }
.title { font-size: 21px; font-weight: 650; }
.metric { font-size: 14px; font-weight: 600; }
.label { font-size: 12px; }
.muted { fill: #656d76; }
.grid { stroke: #d8dee4; stroke-width: 1; }
.track { fill: #eaeef2; }
.commit-bar { fill: #2f81f7; }
.added-line { fill: none; stroke: #1a7f37; }
.deleted-line { fill: none; stroke: #cf222e; }
.added-marker { fill: #1a7f37; stroke: #1a7f37; }
.deleted-marker { fill: #cf222e; stroke: #cf222e; }
.added-text { fill: #1a7f37; }
.deleted-text { fill: #cf222e; }
.language { fill: #8250df; }
.technology { fill: #0969da; }
@media (prefers-color-scheme: dark) {
  text { fill: #f0f6fc; }
  .surface { fill: #0d1117; stroke: #30363d; }
  .muted { fill: #8b949e; }
  .grid { stroke: #30363d; }
  .track { fill: #21262d; }
  .commit-bar { fill: #58a6ff; }
  .added-line { stroke: #3fb950; }
  .deleted-line { stroke: #f85149; }
  .added-marker { fill: #3fb950; stroke: #3fb950; }
  .deleted-marker { fill: #f85149; stroke: #f85149; }
  .added-text { fill: #3fb950; }
  .deleted-text { fill: #f85149; }
  .language { fill: #a371f7; }
  .technology { fill: #58a6ff; }
}</style>
<rect class="surface" x="1" y="1" width="718" height="258" rx="12" />
<text class="title" x="28" y="38">Строки кода</text>
<text class="metric added-text" x="28" y="64">добавлено +3 942 109</text>
<text class="metric deleted-text" x="210" y="64">удалено −660 223</text>
<text class="label muted" x="696" y="80" text-anchor="end">строк/день</text>
<line class="grid" x1="54" y1="88" x2="696" y2="88" />
<text class="muted" font-size="10" x="46" y="91.5" text-anchor="end">1 235 574</text>
<line class="grid" x1="54" y1="118.5" x2="696" y2="118.5" />
<text class="muted" font-size="10" x="46" y="122" text-anchor="end">926 681</text>
<line class="grid" x1="54" y1="149" x2="696" y2="149" />
<text class="muted" font-size="10" x="46" y="152.5" text-anchor="end">617 787</text>
<line class="grid" x1="54" y1="179.5" x2="696" y2="179.5" />
<text class="muted" font-size="10" x="46" y="183" text-anchor="end">308 894</text>
<line class="grid" x1="54" y1="210" x2="696" y2="210" />
<text class="muted" font-size="10" x="46" y="213.5" text-anchor="end">0</text>
<polyline class="added-line" points="54,208.53 55.76,209.57 57.53,209.38 59.29,209.96 61.05,207.66 62.82,209.82 64.58,210 66.35,209.7 68.11,209.92 69.87,208.91 71.64,209.67 73.4,208.51 75.16,210 76.93,209.99 78.69,209.51 80.46,209.89 82.22,209.89 83.98,209.9 85.75,209.92 87.51,210 89.27,210 91.04,209.92 92.8,209.85 94.57,210 96.33,208.86 98.09,209.58 99.86,209.95 101.62,210 103.38,209.09 105.15,210 106.91,204.81 108.68,209.98 110.44,209.85 112.2,210 113.97,209.95 115.73,209.55 117.49,209.91 119.26,209.98 121.02,209.95 122.79,209.3 124.55,209.98 126.31,209.58 128.08,209.9 129.84,210 131.6,209.99 133.37,209.89 135.13,209.68 136.9,209.94 138.66,209.99 140.42,209.87 142.19,209.99 143.95,209.94 145.71,209.97 147.48,210 149.24,209.99 151.01,209.97 152.77,209.5 154.53,209.56 156.3,209.95 158.06,209.95 159.82,209.83 161.59,209.98 163.35,209.99 165.12,207.25 166.88,209.95 168.64,209.96 170.41,209.91 172.17,209.55 173.93,209.85 175.7,209.91 177.46,209.04 179.23,209.59 180.99,209.94 182.75,209.98 184.52,209.93 186.28,209.87 188.04,209.9 189.81,209.99 191.57,209.73 193.34,209.79 195.1,208.96 196.86,209.27 198.63,209.97 200.39,209.94 202.15,209.77 203.92,209.93 205.68,208.69 207.45,209.95 209.21,209.95 210.97,210 212.74,210 214.5,209.79 216.26,209.86 218.03,209.47 219.79,209.17 221.55,209.86 223.32,209.98 225.08,209.97 226.85,208.7 228.61,209.17 230.37,210 232.14,210 233.9,210 235.66,210 237.43,210 239.19,210 240.96,210 242.72,210 244.48,210 246.25,210 248.01,210 249.77,209.87 251.54,209.81 253.3,209.95 255.07,210 256.83,209.93 258.59,209.81 260.36,209.98 262.12,210 263.88,209.81 265.65,209.96 267.41,209.93 269.18,209.93 270.94,209.27 272.7,210 274.47,210 276.23,209.89 277.99,209.51 279.76,209.98 281.52,209.91 283.29,209.75 285.05,210 286.81,210 288.58,209.96 290.34,209.67 292.1,209.94 293.87,209.7 295.63,209.99 297.4,210 299.16,210 300.92,210 302.69,209.95 304.45,209.94 306.21,210 307.98,210 309.74,210 311.51,210 313.27,209.99 315.03,209.92 316.8,208.72 318.56,209.89 320.32,209.74 322.09,210 323.85,210 325.62,210 327.38,210 329.14,209.82 330.91,210 332.67,204.63 334.43,210 336.2,209.93 337.96,209.92 339.73,209.99 341.49,209.97 343.25,210 345.02,210 346.78,210 348.54,210 350.31,210 352.07,210 353.84,209.91 355.6,209.99 357.36,210 359.13,210 360.89,210 362.65,210 364.42,210 366.18,209.72 367.95,210 369.71,210 371.47,210 373.24,210 375,210 376.76,210 378.53,210 380.29,210 382.05,210 383.82,210 385.58,209.38 387.35,210 389.11,209.86 390.87,170.86 392.64,209.93 394.4,209.94 396.16,210 397.93,210 399.69,210 401.46,210 403.22,210 404.98,209.79 406.75,209.76 408.51,209.9 410.27,209.92 412.04,209.88 413.8,209.95 415.57,209.92 417.33,209.97 419.09,210 420.86,210 422.62,210 424.38,209.96 426.15,210 427.91,209.95 429.68,210 431.44,210 433.2,209.84 434.97,210 436.73,210 438.49,209.98 440.26,210 442.02,209.93 443.79,210 445.55,209.99 447.31,210 449.08,209.9 450.84,209.98 452.6,209.98 454.37,210 456.13,210 457.9,210 459.66,210 461.42,210 463.19,209.99 464.95,209.99 466.71,210 468.48,210 470.24,209.66 472.01,209.84 473.77,209.9 475.53,209.92 477.3,209.98 479.06,209.81 480.82,209.82 482.59,209.9 484.35,209.93 486.12,209.98 487.88,209.85 489.64,209.89 491.41,209.88 493.17,209.9 494.93,209.99 496.7,210 498.46,209.83 500.23,209.69 501.99,209.89 503.75,209.86 505.52,209.89 507.28,209.91 509.04,209.95 510.81,209.87 512.57,210 514.34,209.88 516.1,209.8 517.86,209.82 519.63,209.55 521.39,210 523.15,209.88 524.92,209.58 526.68,209.47 528.45,209.98 530.21,209.98 531.97,210 533.74,210 535.5,209.79 537.26,209.97 539.03,209.97 540.79,209.96 542.55,209.9 544.32,210 546.08,209.82 547.85,209.54 549.61,209.63 551.37,209.89 553.14,209.96 554.9,209.91 556.66,209.7 558.43,209.48 560.19,209.89 561.96,209.84 563.72,209.93 565.48,209.79 567.25,209.97 569.01,209.92 570.77,210 572.54,209.99 574.3,209.98 576.07,209.4 577.83,208.47 579.59,208.09 581.36,209.63 583.12,210 584.88,209.73 586.65,208.42 588.41,208.83 590.18,208.99 591.94,210 593.7,208.86 595.47,204.75 597.23,209.24 598.99,209.7 600.76,206.95 602.52,202.94 604.29,203.78 606.05,199.45 607.81,207.88 609.58,209.62 611.34,209.92 613.1,209.72 614.87,207.1 616.63,207.86 618.4,208.37 620.16,206.56 621.92,205.98 623.69,209.51 625.45,205.43 627.21,114.78 628.98,88 630.74,209.6 632.51,209.82 634.27,210 636.03,209.94 637.8,209.94 639.56,210 641.32,210 643.09,208.62 644.85,209.93 646.62,209.84 648.38,209.69 650.14,210 651.91,209.84 653.67,209.81 655.43,210 657.2,208.01 658.96,209.84 660.73,209.45 662.49,209.63 664.25,209.84 666.02,210 667.78,210 669.54,210 671.31,209.82 673.07,208.26 674.84,209.62 676.6,210 678.36,209.99 680.13,209.83 681.89,209.99 683.65,209.77 685.42,209.84 687.18,209.99 688.95,209.46 690.71,209.98 692.47,209.8 694.24,208.59 696,209.82" stroke-width="2.4" stroke-linejoin="round" stroke-linecap="round" vector-effect="non-scaling-stroke" />
<polyline class="deleted-line" points="54,209.83 55.76,209.82 57.53,209.87 59.29,209.99 61.05,209.46 62.82,210 64.58,210 66.35,209.92 68.11,209.95 69.87,209.83 71.64,209.91 73.4,209.68 75.16,210 76.93,209.99 78.69,209.8 80.46,209.96 82.22,209.93 83.98,209.95 85.75,209.98 87.51,210 89.27,210 91.04,209.92 92.8,209.95 94.57,210 96.33,209.14 98.09,207.11 99.86,210 101.62,210 103.38,209.94 105.15,210 106.91,208.91 108.68,209.99 110.44,209.97 112.2,210 113.97,209.99 115.73,209.9 117.49,209.94 119.26,209.98 121.02,209.97 122.79,209.3 124.55,209.99 126.31,209.97 128.08,209.93 129.84,210 131.6,210 133.37,209.92 135.13,209.98 136.9,209.95 138.66,210 140.42,209.91 142.19,209.99 143.95,209.97 145.71,209.92 147.48,210 149.24,209.99 151.01,209.99 152.77,209.93 154.53,209.89 156.3,209.98 158.06,209.96 159.82,209.96 161.59,209.99 163.35,210 165.12,209.32 166.88,209.97 168.64,209.98 170.41,209.92 172.17,209.92 173.93,209.96 175.7,209.97 177.46,209.78 179.23,209.75 180.99,209.97 182.75,209.99 184.52,209.97 186.28,209.98 188.04,209.96 189.81,209.98 191.57,209.89 193.34,209.94 195.1,209.8 196.86,209.94 198.63,209.92 200.39,210 202.15,209.98 203.92,209.97 205.68,209.53 207.45,209.97 209.21,209.99 210.97,210 212.74,210 214.5,209.76 216.26,209.93 218.03,209.75 219.79,209.5 221.55,209.95 223.32,209.99 225.08,209.99 226.85,209.2 228.61,209.91 230.37,210 232.14,210 233.9,210 235.66,210 237.43,210 239.19,210 240.96,210 242.72,210 244.48,210 246.25,210 248.01,210 249.77,209.98 251.54,209.93 253.3,209.98 255.07,210 256.83,209.95 258.59,209.9 260.36,209.99 262.12,210 263.88,209.86 265.65,209.97 267.41,209.94 269.18,209.94 270.94,209.44 272.7,210 274.47,210 276.23,209.99 277.99,209.95 279.76,209.99 281.52,209.99 283.29,209.95 285.05,210 286.81,210 288.58,209.99 290.34,209.95 292.1,209.99 293.87,209.96 295.63,209.99 297.4,210 299.16,210 300.92,210 302.69,209.98 304.45,209.96 306.21,210 307.98,210 309.74,210 311.51,210 313.27,210 315.03,209.96 316.8,209.99 318.56,209.96 320.32,209.95 322.09,210 323.85,210 325.62,210 327.38,210 329.14,209.85 330.91,210 332.67,209.55 334.43,210 336.2,209.97 337.96,209.99 339.73,210 341.49,209.98 343.25,210 345.02,210 346.78,210 348.54,210 350.31,210 352.07,210 353.84,209.99 355.6,210 357.36,210 359.13,210 360.89,210 362.65,210 364.42,210 366.18,209.99 367.95,210 369.71,210 371.47,210 373.24,210 375,210 376.76,210 378.53,210 380.29,210 382.05,210 383.82,210 385.58,210 387.35,210 389.11,209.97 390.87,210 392.64,209.97 394.4,209.99 396.16,210 397.93,210 399.69,210 401.46,210 403.22,210 404.98,210 406.75,209.97 408.51,170.55 410.27,209.99 412.04,209.96 413.8,210 415.57,209.96 417.33,209.99 419.09,210 420.86,210 422.62,210 424.38,209.99 426.15,210 427.91,209.96 429.68,210 431.44,210 433.2,210 434.97,210 436.73,210 438.49,209.99 440.26,210 442.02,209.98 443.79,210 445.55,209.97 447.31,210 449.08,209.96 450.84,209.97 452.6,209.97 454.37,210 456.13,210 457.9,210 459.66,210 461.42,210 463.19,210 464.95,209.99 466.71,210 468.48,210 470.24,210 472.01,209.96 473.77,209.96 475.53,210 477.3,210 479.06,210 480.82,209.98 482.59,209.96 484.35,209.96 486.12,210 487.88,209.94 489.64,209.97 491.41,209.94 493.17,209.99 494.93,210 496.7,210 498.46,209.97 500.23,209.83 501.99,209.98 503.75,209.96 505.52,209.98 507.28,209.98 509.04,209.99 510.81,210 512.57,210 514.34,209.96 516.1,209.8 517.86,209.99 519.63,209.89 521.39,210 523.15,209.99 524.92,209.94 526.68,209.94 528.45,209.97 530.21,209.98 531.97,210 533.74,209.99 535.5,209.96 537.26,209.99 539.03,209.99 540.79,209.99 542.55,209.94 544.32,210 546.08,209.95 547.85,209.97 549.61,209.97 551.37,209.99 553.14,210 554.9,209.97 556.66,209.93 558.43,209.98 560.19,209.94 561.96,209.93 563.72,209.99 565.48,209.92 567.25,210 569.01,209.98 570.77,210 572.54,210 574.3,210 576.07,210 577.83,209.99 579.59,209.94 581.36,209.9 583.12,210 584.88,209.97 586.65,209.92 588.41,209.96 590.18,209.97 591.94,210 593.7,209.98 595.47,209.66 597.23,209.94 598.99,209.95 600.76,209.98 602.52,209.88 604.29,209.92 606.05,209.8 607.81,209.55 609.58,209.93 611.34,209.99 613.1,209.98 614.87,209.91 616.63,209.97 618.4,209.99 620.16,209.05 621.92,207.8 623.69,209.8 625.45,209.94 627.21,209.96 628.98,209.96 630.74,209.98 632.51,210 634.27,210 636.03,209.99 637.8,209.88 639.56,210 641.32,210 643.09,209.92 644.85,209.99 646.62,209.94 648.38,209.78 650.14,210 651.91,209.99 653.67,209.99 655.43,210 657.2,209.9 658.96,209.98 660.73,209.83 662.49,209.99 664.25,209.98 666.02,210 667.78,210 669.54,210 671.31,209.99 673.07,209.97 674.84,209.99 676.6,210 678.36,209.99 680.13,209.97 681.89,210 683.65,209.89 685.42,209.9 687.18,209.99 688.95,210 690.71,210 692.47,209.87 694.24,209.07 696,209.97" stroke-width="2.4" stroke-linejoin="round" stroke-linecap="round" vector-effect="non-scaling-stroke" />
<text class="label muted" x="54" y="238">22.09.2025</text>
<text class="label muted" x="696" y="238" text-anchor="end">21.09.2026</text>
</svg>
