<?xml version="1.0" encoding="UTF-8"?>
<svg xmlns="http://www.w3.org/2000/svg" viewBox="0 0 720 1064" width="720" height="1064" style="max-width:100%;height:auto" role="img" aria-labelledby="title description" preserveAspectRatio="xMidYMid meet">
<title id="title">Языки и технологии</title>
<desc id="description">Агрегированные доли языков и частота технологий по репозиториям.</desc>
<style>text { font-family: -apple-system, BlinkMacSystemFont, "Segoe UI", sans-serif; fill: #1f2328; }
.surface { fill: #ffffff; stroke: #d0d7de; }
.title { font-size: 21px; font-weight: 650; }
.metric { font-size: 14px; font-weight: 600; }
.label { font-size: 12px; }
.muted { fill: #656d76; }
.grid { stroke: #d8dee4; stroke-width: 1; }
.track { fill: #eaeef2; }
.commit-bar { fill: #2f81f7; }
.added-line { fill: none; stroke: #1a7f37; }
.deleted-line { fill: none; stroke: #cf222e; }
.added-marker { fill: #1a7f37; stroke: #1a7f37; }
.deleted-marker { fill: #cf222e; stroke: #cf222e; }
.added-text { fill: #1a7f37; }
.deleted-text { fill: #cf222e; }
.language { fill: #8250df; }
.technology { fill: #0969da; }
@media (prefers-color-scheme: dark) {
  text { fill: #f0f6fc; }
  .surface { fill: #0d1117; stroke: #30363d; }
  .muted { fill: #8b949e; }
  .grid { stroke: #30363d; }
  .track { fill: #21262d; }
  .commit-bar { fill: #58a6ff; }
  .added-line { stroke: #3fb950; }
  .deleted-line { stroke: #f85149; }
  .added-marker { fill: #3fb950; stroke: #3fb950; }
  .deleted-marker { fill: #f85149; stroke: #f85149; }
  .added-text { fill: #3fb950; }
  .deleted-text { fill: #f85149; }
  .language { fill: #a371f7; }
  .technology { fill: #58a6ff; }
}</style>
<rect class="surface" x="1" y="1" width="718" height="1062" rx="12" />
<text class="title" x="28" y="38">Языки и технологии</text>
<text class="metric" x="28" y="76">Языки</text>
<text class="metric" x="382" y="76">Технологии</text>
<g><title>Python</title><text class="label" x="28" y="104">Python</text><text class="label muted" x="348" y="104" text-anchor="end">66.21%</text></g>
<rect class="track" x="28" y="112" width="320" height="5" rx="2.5" />
<rect class="language" x="28" y="112" width="211.87" height="5" rx="2.5" />
<g><title>Dart</title><text class="label" x="28" y="138">Dart</text><text class="label muted" x="348" y="138" text-anchor="end">17.27%</text></g>
<rect class="track" x="28" y="146" width="320" height="5" rx="2.5" />
<rect class="language" x="28" y="146" width="55.26" height="5" rx="2.5" />
<g><title>C++</title><text class="label" x="28" y="172">C++</text><text class="label muted" x="348" y="172" text-anchor="end">5.87%</text></g>
<rect class="track" x="28" y="180" width="320" height="5" rx="2.5" />
<rect class="language" x="28" y="180" width="18.78" height="5" rx="2.5" />
<g><title>Objective-C++</title><text class="label" x="28" y="206">Objective-C++</text><text class="label muted" x="348" y="206" text-anchor="end">2.04%</text></g>
<rect class="track" x="28" y="214" width="320" height="5" rx="2.5" />
<rect class="language" x="28" y="214" width="6.53" height="5" rx="2.5" />
<g><title>HTML</title><text class="label" x="28" y="240">HTML</text><text class="label muted" x="348" y="240" text-anchor="end">2.00%</text></g>
<rect class="track" x="28" y="248" width="320" height="5" rx="2.5" />
<rect class="language" x="28" y="248" width="6.4" height="5" rx="2.5" />
<g><title>JavaScript</title><text class="label" x="28" y="274">JavaScript</text><text class="label muted" x="348" y="274" text-anchor="end">1.92%</text></g>
<rect class="track" x="28" y="282" width="320" height="5" rx="2.5" />
<rect class="language" x="28" y="282" width="6.14" height="5" rx="2.5" />
<g><title>Shell</title><text class="label" x="28" y="308">Shell</text><text class="label muted" x="348" y="308" text-anchor="end">0.94%</text></g>
<rect class="track" x="28" y="316" width="320" height="5" rx="2.5" />
<rect class="language" x="28" y="316" width="3.01" height="5" rx="2.5" />
<g><title>PHP</title><text class="label" x="28" y="342">PHP</text><text class="label muted" x="348" y="342" text-anchor="end">0.84%</text></g>
<rect class="track" x="28" y="350" width="320" height="5" rx="2.5" />
<rect class="language" x="28" y="350" width="2.69" height="5" rx="2.5" />
<g><title>C</title><text class="label" x="28" y="376">C</text><text class="label muted" x="348" y="376" text-anchor="end">0.78%</text></g>
<rect class="track" x="28" y="384" width="320" height="5" rx="2.5" />
<rect class="language" x="28" y="384" width="2.5" height="5" rx="2.5" />
<g><title>CSS</title><text class="label" x="28" y="410">CSS</text><text class="label muted" x="348" y="410" text-anchor="end">0.54%</text></g>
<rect class="track" x="28" y="418" width="320" height="5" rx="2.5" />
<rect class="language" x="28" y="418" width="1.73" height="5" rx="2.5" />
<g><title>CMake</title><text class="label" x="28" y="444">CMake</text><text class="label muted" x="348" y="444" text-anchor="end">0.46%</text></g>
<rect class="track" x="28" y="452" width="320" height="5" rx="2.5" />
<rect class="language" x="28" y="452" width="1.47" height="5" rx="2.5" />
<g><title>Makefile</title><text class="label" x="28" y="478">Makefile</text><text class="label muted" x="348" y="478" text-anchor="end">0.46%</text></g>
<rect class="track" x="28" y="486" width="320" height="5" rx="2.5" />
<rect class="language" x="28" y="486" width="1.47" height="5" rx="2.5" />
<g><title>Astro</title><text class="label" x="28" y="512">Astro</text><text class="label muted" x="348" y="512" text-anchor="end">0.22%</text></g>
<rect class="track" x="28" y="520" width="320" height="5" rx="2.5" />
<rect class="language" x="28" y="520" width="0.7" height="5" rx="2.5" />
<g><title>Swift</title><text class="label" x="28" y="546">Swift</text><text class="label muted" x="348" y="546" text-anchor="end">0.15%</text></g>
<rect class="track" x="28" y="554" width="320" height="5" rx="2.5" />
<rect class="language" x="28" y="554" width="0.48" height="5" rx="2.5" />
<g><title>Blade</title><text class="label" x="28" y="580">Blade</text><text class="label muted" x="348" y="580" text-anchor="end">0.07%</text></g>
<rect class="track" x="28" y="588" width="320" height="5" rx="2.5" />
<rect class="language" x="28" y="588" width="0.22" height="5" rx="2.5" />
<g><title>Scala</title><text class="label" x="28" y="614">Scala</text><text class="label muted" x="348" y="614" text-anchor="end">0.05%</text></g>
<rect class="track" x="28" y="622" width="320" height="5" rx="2.5" />
<rect class="language" x="28" y="622" width="0.16" height="5" rx="2.5" />
<g><title>Ruby</title><text class="label" x="28" y="648">Ruby</text><text class="label muted" x="348" y="648" text-anchor="end">0.05%</text></g>
<rect class="track" x="28" y="656" width="320" height="5" rx="2.5" />
<rect class="language" x="28" y="656" width="0.16" height="5" rx="2.5" />
<g><title>Objective-C</title><text class="label" x="28" y="682">Objective-C</text><text class="label muted" x="348" y="682" text-anchor="end">0.02%</text></g>
<rect class="track" x="28" y="690" width="320" height="5" rx="2.5" />
<rect class="language" x="28" y="690" width="0.06" height="5" rx="2.5" />
<g><title>Kotlin</title><text class="label" x="28" y="716">Kotlin</text><text class="label muted" x="348" y="716" text-anchor="end">0.02%</text></g>
<rect class="track" x="28" y="724" width="320" height="5" rx="2.5" />
<rect class="language" x="28" y="724" width="0.06" height="5" rx="2.5" />
<g><title>PowerShell</title><text class="label" x="28" y="750">PowerShell</text><text class="label muted" x="348" y="750" text-anchor="end">0.01%</text></g>
<rect class="track" x="28" y="758" width="320" height="5" rx="2.5" />
<rect class="language" x="28" y="758" width="0.03" height="5" rx="2.5" />
<g><title>Awk</title><text class="label" x="28" y="784">Awk</text><text class="label muted" x="348" y="784" text-anchor="end">0.01%</text></g>
<rect class="track" x="28" y="792" width="320" height="5" rx="2.5" />
<rect class="language" x="28" y="792" width="0.03" height="5" rx="2.5" />
<g><title>Metal</title><text class="label" x="28" y="818">Metal</text><text class="label muted" x="348" y="818" text-anchor="end">0.01%</text></g>
<rect class="track" x="28" y="826" width="320" height="5" rx="2.5" />
<rect class="language" x="28" y="826" width="0.03" height="5" rx="2.5" />
<g><title>TypeScript</title><text class="label" x="28" y="852">TypeScript</text><text class="label muted" x="348" y="852" text-anchor="end">0.01%</text></g>
<rect class="track" x="28" y="860" width="320" height="5" rx="2.5" />
<rect class="language" x="28" y="860" width="0.03" height="5" rx="2.5" />
<g><title>Dockerfile</title><text class="label" x="28" y="886">Dockerfile</text><text class="label muted" x="348" y="886" text-anchor="end">0.01%</text></g>
<rect class="track" x="28" y="894" width="320" height="5" rx="2.5" />
<rect class="language" x="28" y="894" width="0.03" height="5" rx="2.5" />
<g><title>Java</title><text class="label" x="28" y="920">Java</text><text class="label muted" x="348" y="920" text-anchor="end">0.01%</text></g>
<rect class="track" x="28" y="928" width="320" height="5" rx="2.5" />
<rect class="language" x="28" y="928" width="0.03" height="5" rx="2.5" />
<g><title>Batchfile</title><text class="label" x="28" y="954">Batchfile</text><text class="label muted" x="348" y="954" text-anchor="end">0.01%</text></g>
<rect class="track" x="28" y="962" width="320" height="5" rx="2.5" />
<rect class="language" x="28" y="962" width="0.03" height="5" rx="2.5" />
<g><title>Mako</title><text class="label" x="28" y="988">Mako</text><text class="label muted" x="348" y="988" text-anchor="end">0.01%</text></g>
<rect class="track" x="28" y="996" width="320" height="5" rx="2.5" />
<rect class="language" x="28" y="996" width="0.03" height="5" rx="2.5" />
<g><title>Smarty</title><text class="label" x="28" y="1022">Smarty</text><text class="label muted" x="348" y="1022" text-anchor="end">0.01%</text></g>
<rect class="track" x="28" y="1030" width="320" height="5" rx="2.5" />
<rect class="language" x="28" y="1030" width="0.03" height="5" rx="2.5" />
<g><title>Dart pub</title><text class="label" x="382" y="104">Dart pub</text><text class="label muted" x="692" y="104" text-anchor="end">20 · 54.05%</text></g>
<rect class="track" x="382" y="112" width="310" height="5" rx="2.5" />
<rect class="technology" x="382" y="112" width="167.56" height="5" rx="2.5" />
<g><title>Gradle</title><text class="label" x="382" y="138">Gradle</text><text class="label muted" x="692" y="138" text-anchor="end">19 · 51.35%</text></g>
<rect class="track" x="382" y="146" width="310" height="5" rx="2.5" />
<rect class="technology" x="382" y="146" width="159.19" height="5" rx="2.5" />
<g><title>Make</title><text class="label" x="382" y="172">Make</text><text class="label muted" x="692" y="172" text-anchor="end">7 · 18.92%</text></g>
<rect class="track" x="382" y="180" width="310" height="5" rx="2.5" />
<rect class="technology" x="382" y="180" width="58.65" height="5" rx="2.5" />
<g><title>Python</title><text class="label" x="382" y="206">Python</text><text class="label muted" x="692" y="206" text-anchor="end">6 · 16.22%</text></g>
<rect class="track" x="382" y="214" width="310" height="5" rx="2.5" />
<rect class="technology" x="382" y="214" width="50.28" height="5" rx="2.5" />
<g><title>Docker</title><text class="label" x="382" y="240">Docker</text><text class="label muted" x="692" y="240" text-anchor="end">4 · 10.81%</text></g>
<rect class="track" x="382" y="248" width="310" height="5" rx="2.5" />
<rect class="technology" x="382" y="248" width="33.51" height="5" rx="2.5" />
<g><title>Node.js</title><text class="label" x="382" y="274">Node.js</text><text class="label muted" x="692" y="274" text-anchor="end">4 · 10.81%</text></g>
<rect class="track" x="382" y="282" width="310" height="5" rx="2.5" />
<rect class="technology" x="382" y="282" width="33.51" height="5" rx="2.5" />
<g><title>Composer</title><text class="label" x="382" y="308">Composer</text><text class="label muted" x="692" y="308" text-anchor="end">3 · 8.11%</text></g>
<rect class="track" x="382" y="316" width="310" height="5" rx="2.5" />
<rect class="technology" x="382" y="316" width="25.14" height="5" rx="2.5" />
<g><title>CMake</title><text class="label" x="382" y="342">CMake</text><text class="label muted" x="692" y="342" text-anchor="end">2 · 5.41%</text></g>
<rect class="track" x="382" y="350" width="310" height="5" rx="2.5" />
<rect class="technology" x="382" y="350" width="16.77" height="5" rx="2.5" />
</svg>
